<?xml version="1.0" standalone="no"?>
<!DOCTYPE svg PUBLIC "-//W3C//DTD SVG 20010904//EN"
 "http://www.w3.org/TR/2001/REC-SVG-20010904/DTD/svg10.dtd">
<svg version="1.0" xmlns="http://www.w3.org/2000/svg"
 width="1470.000000pt" height="2228.000000pt" viewBox="0 0 1470.000000 2228.000000"
 preserveAspectRatio="xMidYMid meet">

<g transform="translate(0.000000,2228.000000) scale(0.100000,-0.100000)"
fill="#000000" stroke="none">
<path d="M7313 22269 c-17 -5 -41 -22 -53 -37 -12 -15 -1637 -2563 -3611
-5662 -1975 -3099 -3601 -5651 -3613 -5670 -13 -19 -27 -47 -30 -62 -8 -36 14
-89 50 -117 25 -19 7074 -4033 7224 -4113 39 -21 63 -28 83 -24 15 3 204 106
420 229 216 123 1839 1046 3607 2052 1768 1005 3230 1837 3247 1849 38 25 66
85 57 124 -4 15 -26 56 -49 92 -33 52 -7140 11207 -7191 11287 -29 46 -87 67
-141 52z m3552 -5863 c1857 -2914 3375 -5300 3373 -5301 -2 -2 -1524 673
-3383 1500 l-3380 1503 -3 3808 c-1 2357 2 3804 7 3799 5 -6 1529 -2394 3386
-5309z m-3645 1502 l-1 -3803 -3377 -1501 c-1857 -826 -3378 -1501 -3380
-1499 -3 2 6751 10605 6756 10605 1 0 2 -1711 2 -3802z m0 -7528 c0 -1897 -2
-3450 -4 -3450 -6 0 -6790 3860 -6798 3868 -5 6 6769 3027 6795 3031 4 1 7
-1551 7 -3449z m3674 1935 c2553 -1135 3392 -1513 3383 -1521 -19 -17 -6785
-3864 -6797 -3864 -7 0 -10 1124 -10 3451 0 3022 2 3450 15 3447 8 -2 1542
-682 3409 -1513z"/>
<path d="M74 9814 c-40 -19 -64 -62 -64 -113 0 -38 13 -59 153 -244 84 -111
1705 -2261 3602 -4777 1896 -2516 3463 -4594 3482 -4617 61 -77 145 -77 206 0
19 23 1559 2065 3422 4537 1864 2472 3485 4622 3602 4777 196 260 213 286 213
323 0 56 -22 94 -67 115 -30 14 -45 16 -74 8 -20 -5 -1644 -945 -3610 -2088
-1966 -1144 -3581 -2079 -3589 -2079 -8 0 -1617 932 -3575 2071 -1958 1138
-3574 2078 -3592 2087 -39 20 -69 20 -109 0z m3837 -2450 c1812 -1054 3300
-1921 3307 -1926 9 -8 12 -514 12 -2469 0 -1353 -3 -2459 -7 -2459 -6 1 -6551
8675 -6602 8750 -7 11 -11 20 -9 20 2 0 1487 -862 3299 -1916z m10173 1904
c-5 -7 -1455 -1932 -3224 -4278 -1769 -2346 -3253 -4314 -3298 -4374 l-82
-109 2 2467 3 2467 3300 1919 c1815 1056 3301 1920 3303 1920 2 0 0 -6 -4 -12z"/>
</g>
</svg>
